<?xml version="1.0" standalone="no"?><!DOCTYPE svg PUBLIC "-//W3C//DTD SVG 1.1//EN" "http://www.w3.org/Graphics/SVG/1.1/DTD/svg11.dtd"><svg t="1527490111908" class="icon" style="" viewBox="0 0 1024 1024" version="1.1" xmlns="http://www.w3.org/2000/svg" p-id="4912" xmlns:xlink="http://www.w3.org/1999/xlink" width="32" height="32"><defs><style type="text/css"></style></defs><path d="M671.328 609.424c-12.462 0-16.912 5.34-16.912 5.34l-170.01 81-170.01-82.78c-5.34-2.67-10.68-3.56-16.912-4.45-21.362-2.67-31.153 12.461-31.153 27.593 0 9.791 6.23 17.803 14.241 22.253l186.921 92.57c5.341 2.67 10.682 5.34 16.913 5.34 6.23 0 11.571-1.78 16.912-5.34l186.92-89.9c8.011-5.341 14.242-14.242 14.242-24.033 0.002-15.132-14.24-27.593-31.152-27.593z" p-id="4913" fill="#FEE632"></path><path d="M789.712 337.942c-19.582-96.13-102.362-167.34-198.493-167.34-78.329 0-149.538 48.066-182.47 120.164-16.913-7.12-34.714-9.79-53.407-9.79-77.439 0-140.636 60.526-148.647 138.856-75.66 7.121-135.296 73.878-135.296 153.988 0 81 60.527 147.757 137.076 153.988v-34.714c-56.966-6.23-102.362-56.966-102.362-119.273 0-66.757 51.626-121.054 116.603-121.054h16.913v-18.692c0.89-65.867 51.625-119.273 114.823-119.273 18.691 0 37.384 4.45 54.296 14.241l17.803 9.791 7.121-18.692c24.032-68.538 87.23-114.823 157.548-114.823 82.78 0 154.879 64.978 166.45 151.318l1.78 13.35 14.241 0.89c81 5.342 145.087 76.55 145.087 162 0 89.01-69.429 161.998-154.878 161.998H755v33.824h8.9c104.142 0 188.702-88.12 188.702-195.823-0.001-98.803-71.21-181.582-162.89-194.934z" p-id="4914" fill="#777777"></path><path d="M671.328 707.335c-12.462 0-16.912 5.34-16.912 5.34l-170.01 81-170.01-82.78c-5.34-2.669-10.68-3.56-16.912-4.45-21.362-2.67-31.153 12.462-31.153 27.594 0 9.791 6.23 17.802 14.241 22.253l186.921 92.57c5.341 2.67 10.682 5.34 16.913 5.34 6.23 0 11.571-1.78 16.912-5.34l186.92-89.9c8.011-5.341 14.242-14.242 14.242-24.033 0.002-15.132-14.24-27.594-31.152-27.594zM688.24 513.292l-186.921-92.57c-5.34-2.67-10.682-4.45-16.912-4.45-6.231 0-12.462 1.78-16.913 5.34l-186.92 90.791c-8.011 4.45-14.242 12.462-14.242 22.253s6.23 17.802 14.241 22.253l186.921 91.68c5.341 2.67 10.682 5.342 16.913 5.342 6.23 0 11.571-1.781 16.912-5.341l186.92-91.681c8.011-5.34 14.242-12.462 14.242-22.253 0.001-8.012-6.23-16.023-14.241-21.364z" p-id="4915" fill="#FEE632"></path></svg>