<?xml version="1.0" standalone="no"?><!DOCTYPE svg PUBLIC "-//W3C//DTD SVG 1.1//EN" "http://www.w3.org/Graphics/SVG/1.1/DTD/svg11.dtd"><svg t="1527825043121" class="icon" style="" viewBox="0 0 1024 1024" version="1.1" xmlns="http://www.w3.org/2000/svg" p-id="1271" xmlns:xlink="http://www.w3.org/1999/xlink" width="32" height="32"><defs><style type="text/css"></style></defs><path d="M448.01 67.463H165.012L364.211 457.44h283.008L448.01 67.463z" fill="#FF0707" p-id="1272"></path><path d="M561.175 67.463L361.962 457.44h283.013L844.177 67.463H561.175z" fill="#FC7D70" p-id="1273"></path><path d="M504.593 264.973c-190.094 0-344.168 154.086-344.168 344.181 0 190.086 154.07 344.153 344.168 344.153 190.081 0 344.171-154.064 344.171-344.153 0-190.091-154.09-344.181-344.171-344.181z m0 629.188c-157.429 0-285.021-127.584-285.021-285.008 0-157.425 127.593-285.03 285.021-285.03 157.412 0 285.003 127.605 285.003 285.03-0.001 157.424-127.591 285.008-285.003 285.008z" fill="#DDDDDB" p-id="1274"></path><path d="M504.593 605 m-280 0 a280 280 0 1 0 560 0 280 280 0 1 0-560 0Z" fill="#A3A3A3" p-id="1275"></path></svg>