<?xml version="1.0" standalone="no"?><!DOCTYPE svg PUBLIC "-//W3C//DTD SVG 1.1//EN" "http://www.w3.org/Graphics/SVG/1.1/DTD/svg11.dtd"><svg t="1548387867769" class="icon" style="" viewBox="0 0 1024 1024" version="1.1" xmlns="http://www.w3.org/2000/svg" p-id="1139" xmlns:xlink="http://www.w3.org/1999/xlink" width="32" height="32"><defs><style type="text/css"></style></defs><path d="M920.6 552.5V408.5l-94.05-72s-67.5-19.35-121.95 28.8C638 424.25 581.75 552.5 581.75 552.5H506.6l-131.85 126-131.85-144-38.25-126-94.05 54v90h810z" fill="#DAEEFC" p-id="1140"></path><path d="M386.9 692c-3.6 0-7.2-1.35-9.9-4.05l-128.7-137.25c-1.35-1.35-2.25-2.7-2.7-4.05l-49.5-122.85-78.75 44.1c-6.3 3.6-14.85 1.35-18.45-5.4-3.6-6.3-1.35-14.85 5.4-18.45l92.25-51.3c3.6-1.8 7.2-2.25 11.25-0.9 3.6 1.35 6.75 4.05 8.1 7.65l54.45 135 117 124.65 100.8-109.35c2.7-2.7 6.3-4.5 9.9-4.5h66.6l139.5-195.75c1.8-2.25 4.05-4.05 6.75-4.95l114.3-38.7c4.5-1.8 9.9-0.45 13.5 2.7l92.25 85.5c5.4 4.95 5.85 13.5 0.9 18.9-4.95 5.4-13.5 5.85-18.9 0.9L827 333.8l-102.6 34.65-140.85 197.55c-2.7 3.6-6.75 5.85-10.8 5.85H503L396.8 687.5c-2.7 2.7-6.3 4.5-9.9 4.5z" fill="#0097FA" p-id="1141"></path></svg>