<?xml version="1.0" standalone="no"?><!DOCTYPE svg PUBLIC "-//W3C//DTD SVG 1.1//EN" "http://www.w3.org/Graphics/SVG/1.1/DTD/svg11.dtd"><svg t="1527825879870" class="icon" style="" viewBox="0 0 1024 1024" version="1.1" xmlns="http://www.w3.org/2000/svg" p-id="1396" xmlns:xlink="http://www.w3.org/1999/xlink" width="32" height="32"><defs><style type="text/css"></style></defs><path d="M448.823 67.432H165.598l199.359 390.294H648.19L448.823 67.432z" fill="#009C1A" p-id="1397"></path><path d="M450.512 74.593L308.891 351.829l47.066 92.896h226.367l28.438-55.662-160.25-314.47z" fill="#009C1A" p-id="1398"></path><path d="M561.841 66.776l-185.13 362.409L660.1 442.68 845.073 66.776H561.841z" fill="#B4EA7C" p-id="1399"></path><path d="M505.198 264.919c-190.256 0-344.436 154.212-344.436 344.46 0 190.246 154.18 344.436 344.436 344.436 190.249 0 344.461-154.195 344.461-344.436 0-190.247-154.212-344.46-344.461-344.46z m0.002 624.399c-154.631 0-279.941-125.317-279.941-279.94 0-154.625 125.31-279.962 279.941-279.962 154.625 0 279.961 125.337 279.961 279.962 0.001 154.618-125.335 279.94-279.961 279.94z" fill="#DDDDDB" p-id="1400"></path><path d="M505.459 324.774c-157.56 0-285.272 127.713-285.272 285.262 0 157.552 127.712 285.24 285.272 285.24 157.551 0 285.245-127.688 285.245-285.24 0-157.549-127.694-285.262-285.245-285.262z m-0.002 524.58c-132.196 0-239.348-107.132-239.348-239.32 0-132.186 107.153-239.338 239.348-239.338 132.187 0 239.324 107.153 239.324 239.338 0 132.189-107.138 239.32-239.324 239.32z" fill="#878787" p-id="1401"></path><path d="M505.459 367.834c-133.779 0-242.216 108.429-242.216 242.202 0 133.762 108.437 242.188 242.216 242.188 133.765 0 242.194-108.424 242.194-242.188 0-133.768-108.429-242.202-242.194-242.202z m-0.707 388.537c-57.388-0.944-91.162-26.843-101.333-77.746l47.193-11.102c3.692 32.398 20.821 49.062 51.359 49.979 37.935 0.929 56.438-16.184 55.528-51.364-2.774-27.762-21.305-42.095-55.528-43.025h-34.698v-40.255h23.597c35.163 0 53.666-14.795 55.524-44.425-0.934-24.057-14.811-36.549-41.643-37.478-26.852 1.863-43.033 17.134-48.584 45.813l-47.193-11.104c12.94-49.974 44.414-75.417 94.388-76.347 59.211 0.934 89.758 27.762 91.617 80.512 0 27.762-15.267 47.672-45.813 59.685 37.007 14.815 55.984 37.956 56.918 69.41-3.702 55.521-37.481 84.678-101.332 87.447z" fill="#A3A3A3" p-id="1402"></path></svg>