<?xml version="1.0" standalone="no"?><!DOCTYPE svg PUBLIC "-//W3C//DTD SVG 1.1//EN" "http://www.w3.org/Graphics/SVG/1.1/DTD/svg11.dtd"><svg t="1527313339080" class="icon" style="" viewBox="0 0 1024 1024" version="1.1" xmlns="http://www.w3.org/2000/svg" p-id="1038" xmlns:xlink="http://www.w3.org/1999/xlink" width="32" height="32"><defs><style type="text/css"></style></defs><path d="M949.825139 695.028547l-63.71923 0 0 131.618667L845.868485 826.647213 845.868485 695.028547l-63.738673 0 0-36.118616 167.69635 0L949.826162 695.028547z" fill="#777777" p-id="1039"></path><path d="M571.350225 743.027747c0 48.774867-39.461757 88.276533-88.273463 88.276533-48.994877 0-88.49552-39.501666-88.49552-88.276533 0-48.773843 39.501666-88.503706 88.49552-88.503706C531.888468 654.523017 571.350225 694.253904 571.350225 743.027747zM532.626271 743.027747c0-27.342742-22.208814-49.809429-49.549509-49.809429-27.622104 0-49.771567 22.466688-49.771567 49.809429s22.149463 49.550533 49.771567 49.550533C510.417457 792.57828 532.626271 770.369466 532.626271 743.027747z" fill="#777777" p-id="1040"></path><path d="M763.981477 658.910954l0 82.306564c0 53.948703-37.730323 89.809445-85.171822 89.809445-47.717791 0-85.410252-35.860742-85.410252-89.809445l0-82.306564 41.034579 0 0 82.306564c0 26.328645 18.567891 48.258097 44.375673 48.258097 25.552979 0 44.079938-21.930475 44.079938-48.258097l0-82.306564L763.981477 658.910954z" fill="#777777" p-id="1041"></path><path d="M282.325575 398.462131c-7.362688-0.984421-17.153682 0.398066-23.9996 10.665921-12.45773 18.606777 4.735861 84.305081 7.322779 97.31028 2.308579 11.601222 34.885532 164.511821 59.878762 166.700673 16.138562 1.452071 13.372565-95.031377 11.501962-127.757732C334.423117 500.478596 328.254627 404.541593 282.325575 398.462131z" fill="#777777" p-id="1042"></path><path d="M635.388726 398.462131c-45.929052 6.079462-52.096519 102.016465-54.68446 146.920164-0.935302 16.35755-0.995677 76.692706-0.995677 76.692706l20.358677-1.350764 22.366404-0.915859c0 0 28.218692-106.256022 29.631878-113.370047 2.625804-13.005198 19.778462-78.704526 7.360641-97.31028C652.543432 398.860197 642.751415 397.47771 635.388726 398.462131z" fill="#777777" p-id="1043"></path><path d="M597.998141 828.796156c-6.049786-6.009877-11.541871-12.617365-16.159028-19.959587-10.726296 16.058744-25.293059 29.352515-42.34748 38.60525C559.609833 842.646606 579.211263 836.555887 597.998141 828.796156z" fill="#777777" p-id="1044"></path><path d="M391.038556 818.149679c-74.78424-11.919471-142.0656-46.584991-194.142675-97.091292 4.77577-2.508123 9.631358-4.855588 14.96483-7.28287 5.850242-2.666736 11.901051-5.432733 18.666128-8.916067 8.795317-4.496407 10.686387-16.557094 8.198729-23.243377-38.32691-101.477182-52.27662-210.53911-35.580357-277.761118 8.118911-32.873712 23.302729-55.590086 45.053102-67.559699 1.214664-0.656963 2.427282-1.194198 3.701299-1.620917 5.173836-1.76111 10.547217-2.666736 15.84078-2.666736 12.536524 0 24.575722 4.825912 35.858696 14.328333 56.217373 47.251164 96.614431 210.489992 105.189737 303.919894 3.603061-2.905166 7.423063-5.541203 11.362792-8.019651-9.829879-91.02104-47.77919-253.971295-108.751866-305.182654-13.511735-11.393491-28.198226-17.163915-43.660382-17.163915-6.646374 0-13.293771 1.094938-19.7406 3.294023-1.910513 0.626263-3.800559 1.482771-5.650697 2.476401-24.835641 13.631462-42.029232 38.96443-51.003628 75.241658-17.213034 69.520353-3.124154 181.387164 36.038798 285.015336 0.51677 1.432629 0.118704 6.865361-2.428306 8.15882-6.486738 3.323699-12.437264 6.05081-18.128893 8.636704-6.547113 2.984984-12.715603 5.969968-18.845207 9.353019-62.406329-64.903196-101.032044-152.850224-101.032044-249.782903 0-198.927655 161.806199-360.744088 360.685759-360.744088 198.918445 0 360.782973 161.815409 360.782973 360.744088 0 60.157101-14.944364 116.821659-41.152259 166.691463 1.948375 0.258896 3.939729 0.399089 5.770424 0.975211 2.885723-0.905626 5.909593-1.531889 9.094122-1.531889l24.87555 0c23.502273-50.615794 36.992519-106.762559 36.992519-166.134785 0-218.540342-177.843454-396.334677-396.362306-396.334677-218.500433 0-396.325467 177.794335-396.325467 396.334677s177.824011 396.34491 396.325467 396.34491c2.447748 0 4.814656-0.319272 7.242961-0.378623C429.445284 852.039533 407.156652 837.770552 391.038556 818.149679z" fill="#777777" p-id="1045"></path><path d="M651.885446 325.657988c-1.830695-0.994654-3.721765-1.851161-5.65172-2.476401-6.447852-2.199085-13.093203-3.294023-19.7406-3.294023-15.441691 0-30.127158 5.771447-43.660382 17.163915-57.131185 48.00841-94.045933 194.231703-106.563014 287.332101 2.269693-0.128937 4.517897-0.346901 6.807033-0.346901 1.810229 0 3.501754 0.427742 5.291516 0.506537 12.795421-95.160313 50.944276-235.075947 102.265128-278.209326 11.304464-9.502421 23.401989-14.328333 35.859719-14.328333 5.332449 0 10.666944 0.905626 15.881712 2.666736 1.233084 0.427742 2.468215 0.963954 3.66139 1.620917 21.768793 11.969613 36.933167 34.685987 45.090964 67.559699 15.243169 61.48126 4.617158 157.924799-26.585495 251.603365 0.140193 1.144056 0.360204 2.269693 0.360204 3.452635l0 46.505173c6.26775 3.184529 11.998265 5.852288 17.469883 8.359388 3.602038 1.632173 6.78759 3.323699 10.07138 5.013177l0-13.550621c-1.713015-0.816598-3.304256-1.710968-5.054109-2.527566-5.672186-2.585895-11.58178-5.313006-18.129916-8.636704-2.526543-1.293459-2.923586-6.725168-2.408863-8.15882 39.162952-103.628172 53.29174-215.494982 36.039821-285.015336C693.912631 364.622418 676.760996 339.290473 651.885446 325.657988z" fill="#777777" p-id="1046"></path><path d="M678.809655 758.967788c8.815783 0 13.632485-9.134031 13.632485-17.751293l0-14.864546c-8.398274 7.78122-17.154705 15.143908-26.247804 22.128997C668.164201 754.25137 672.361803 758.967788 678.809655 758.967788z" fill="#777777" p-id="1047"></path></svg>