<?xml version="1.0" standalone="no"?><!DOCTYPE svg PUBLIC "-//W3C//DTD SVG 1.1//EN" "http://www.w3.org/Graphics/SVG/1.1/DTD/svg11.dtd"><svg t="1527669413961" class="icon" style="" viewBox="0 0 1024 1024" version="1.1" xmlns="http://www.w3.org/2000/svg" p-id="9804" xmlns:xlink="http://www.w3.org/1999/xlink" width="32" height="32"><defs><style type="text/css"></style></defs><path d="M448.111 70.127H165.587l198.862 389.318h282.528L448.111 70.127z" fill="#FEE632" p-id="9805"></path><path d="M561.079 70.127L362.205 459.445h282.529L843.607 70.127H561.079z" fill="#FFFF9C" p-id="9806"></path><path d="M504.606 267.303c-189.769 0-343.6 153.826-343.6 343.599 0 189.765 153.826 343.571 343.6 343.571 189.746 0 343.572-153.805 343.572-343.571 0.001-189.769-153.825-343.599-343.572-343.599z m0 628.124c-157.146 0-284.553-127.376-284.553-284.524 0-157.158 127.407-284.549 284.553-284.549 157.118 0 284.521 127.391 284.521 284.549 0.002 157.148-127.402 284.524-284.521 284.524z" fill="#DDDDDB" p-id="9807"></path><path d="M504.593 610 m-275 0 a275 275 0 1 0 550 0 275 275 0 1 0-550 0Z" fill="#A3A3A3" p-id="9808"></path></svg>