<?xml version="1.0" standalone="no"?><!DOCTYPE svg PUBLIC "-//W3C//DTD SVG 1.1//EN" "http://www.w3.org/Graphics/SVG/1.1/DTD/svg11.dtd"><svg t="1527825879870" class="icon" style="" viewBox="0 0 1024 1024" version="1.1" xmlns="http://www.w3.org/2000/svg" p-id="1396" xmlns:xlink="http://www.w3.org/1999/xlink" width="32" height="32"><defs><style type="text/css"></style></defs><path d="M448.823 67.432H165.598l199.359 390.294H648.19L448.823 67.432z" fill="#009C1A" p-id="1397"></path><path d="M450.512 74.593L308.891 351.829l47.066 92.896h226.367l28.438-55.662-160.25-314.47z" fill="#009C1A" p-id="1398"></path><path d="M561.841 66.776l-185.13 362.409L660.1 442.68 845.073 66.776H561.841z" fill="#B4EA7C" p-id="1399"></path><path d="M505.198 264.919c-190.256 0-344.436 154.212-344.436 344.46 0 190.246 154.18 344.436 344.436 344.436 190.249 0 344.461-154.195 344.461-344.436 0-190.247-154.212-344.46-344.461-344.46z m0.002 624.399c-154.631 0-279.941-125.317-279.941-279.94 0-154.625 125.31-279.962 279.941-279.962 154.625 0 279.961 125.337 279.961 279.962 0.001 154.618-125.335 279.94-279.961 279.94z" fill="#DDDDDB" p-id="1400"></path><path d="M504.593 605 m-275 0 a275 275 0 1 0 550 0 275 275 0 1 0-550 0Z" fill="#A3A3A3" p-id="1401"></path></svg>