<?xml version="1.0" standalone="no"?><!DOCTYPE svg PUBLIC "-//W3C//DTD SVG 1.1//EN" "http://www.w3.org/Graphics/SVG/1.1/DTD/svg11.dtd"><svg t="1579157971034" class="icon" viewBox="0 0 1024 1024" version="1.1" xmlns="http://www.w3.org/2000/svg" p-id="8126" width="48" height="48" xmlns:xlink="http://www.w3.org/1999/xlink"><defs><style type="text/css"></style></defs><path d="M192 320v144h48v-144zM896 64H256a64 64 0 0 0-64 64v128h48V128a16 16 0 0 1 16-16h640a16 16 0 0 1 16 16v768a16 16 0 0 1-16 16H256a16 16 0 0 1-16-16V736h-48v160a64 64 0 0 0 64 64h640a64 64 0 0 0 64-64V128a64 64 0 0 0-64-64zM240 528h-48v144h48z" fill="#FFFFFF" p-id="8127"></path><path d="M288 224H128a64 64 0 0 0 0 128h160a64 64 0 0 0 0-128z m0 96H128a32 32 0 0 1 0-64h160a32 32 0 0 1 0 64z m0 112H128a64 64 0 0 0 0 128h160a64 64 0 0 0 0-128z m0 96H128a32 32 0 0 1 0-64h160a32 32 0 0 1 0 64z m0 112H128a64 64 0 0 0 0 128h160a64 64 0 0 0 0-128z m0 96H128a32 32 0 0 1 0-64h160a32 32 0 0 1 0 64z" fill="#FFFFFF" p-id="8128"></path><path d="M432 624h400a16 16 0 0 1 16 16 16 16 0 0 1-16 16H432a16 16 0 0 1-16-16 16 16 0 0 1 16-16zM432 752h400a16 16 0 0 1 16 16 16 16 0 0 1-16 16H432a16 16 0 0 1-16-16 16 16 0 0 1 16-16zM624 352h-96v-32h80l-64-112 27.68-16 66.24 114.56L704 192l27.68 16-64 112H752v32h-96v32h96v32h-96v96h-32v-96h-96v-32h96z" fill="#FFFFFF" p-id="8129"></path></svg>