<?xml version="1.0" standalone="no"?>
<!DOCTYPE svg PUBLIC "-//W3C//DTD SVG 1.1//EN" "http://www.w3.org/Graphics/SVG/1.1/DTD/svg11.dtd">
<svg width="42px" height="42px" viewBox="0 0 42 42" version="1.1" xmlns="http://www.w3.org/2000/svg" xmlns:xlink="http://www.w3.org/1999/xlink">
    <g id="日历" stroke="none" stroke-width="1" fill="none" fill-rule="evenodd">
        <g id="wealth" fill="#1989FA" fill-rule="nonzero">
            <path d="M39.9890625,29.934375 C41.26875,27.2203125 41.990625,24.196875 41.990625,21 C41.990625,12.675 37.1203125,5.465625 30.075,2.0765625 C30.028125,2.053125 29.98125,2.0296875 29.934375,2.0109375 C27.2203125,0.73125 24.1921875,0.009375 21,0.009375 C9.4265625,0.009375 0.009375,9.4265625 0.009375,21 C0.009375,29.3203125 4.8796875,36.5296875 11.915625,39.91875 C11.9625,39.9421875 12.009375,39.965625 12.0609375,39.984375 C14.775,41.26875 17.803125,41.9859375 21,41.9859375 C29.3296875,41.9859375 36.5390625,37.10625 39.928125,30.0609375 C39.9515625,30.01875 39.9703125,29.9765625 39.9890625,29.934375 Z M39.365625,21 C39.365625,23.1609375 38.9859375,25.2375 38.296875,27.1640625 L31.2046875,20.071875 L22.85625,11.7234375 L29.7328125,4.846875 C35.465625,7.959375 39.365625,14.034375 39.365625,21 Z M21,28.4203125 L13.5796875,21 L21,13.5796875 L28.4203125,21 L21,28.4203125 Z M21,2.634375 C23.1609375,2.634375 25.2375,3.0140625 27.16875,3.703125 L20.071875,10.7953125 L11.6578125,19.209375 L4.8,12.35625 C7.8984375,6.5765625 13.996875,2.634375 21,2.634375 Z M2.634375,21 C2.634375,18.871875 3,16.8328125 3.6703125,14.934375 L12.121875,23.3859375 C12.24375,23.5078125 12.3796875,23.596875 12.5296875,23.6578125 L19.1484375,30.2765625 L12.2625,37.1484375 C6.534375,34.0359375 2.634375,27.965625 2.634375,21 Z M21,39.365625 C18.834375,39.365625 16.7578125,38.9859375 14.8265625,38.296875 L21.928125,31.2046875 L30.2765625,22.85625 L37.153125,29.7328125 C34.0453125,35.465625 27.9703125,39.365625 21,39.365625 Z" id="形状"></path>
        </g>
    </g>
</svg>
