<?xml version="1.0" standalone="no"?><!DOCTYPE svg PUBLIC "-//W3C//DTD SVG 1.1//EN" "http://www.w3.org/Graphics/SVG/1.1/DTD/svg11.dtd"><svg t="1579144515610" class="icon" viewBox="0 0 1024 1024" version="1.1" xmlns="http://www.w3.org/2000/svg" p-id="4380" width="48" height="48" xmlns:xlink="http://www.w3.org/1999/xlink"><defs><style type="text/css"></style></defs><path d="M917.1 702.6c27.3-57.9 42.7-122.4 42.7-190.6 0-177.6-103.9-331.4-254.2-403.7-1-0.5-2-1-3-1.4C644.7 79.6 580.1 64.2 512 64.2 265.1 64.2 64.2 265.1 64.2 512c0 177.5 103.9 331.3 254 403.6 1 0.5 2 1 3.1 1.4 57.9 27.4 122.5 42.7 190.7 42.7 177.7 0 331.5-104.1 403.8-254.4 0.5-0.9 0.9-1.8 1.3-2.7zM903.8 512c0 46.1-8.1 90.4-22.8 131.5L729.7 492.2 551.6 314.1l146.7-146.7c122.3 66.4 205.5 196 205.5 344.6zM512 670.3L353.7 512 512 353.7 670.3 512 512 670.3z m0-550.1c46.1 0 90.4 8.1 131.6 22.8L492.2 294.3 312.7 473.8 166.4 327.6C232.5 204.3 362.6 120.2 512 120.2zM120.2 512c0-45.4 7.8-88.9 22.1-129.4l180.3 180.3c2.6 2.6 5.5 4.5 8.7 5.8l141.2 141.2-146.9 146.6C203.4 790.1 120.2 660.6 120.2 512zM512 903.8c-46.2 0-90.5-8.1-131.7-22.8l151.5-151.3 178.1-178.1 146.7 146.7C790.3 820.6 660.7 903.8 512 903.8z" fill="#000000" p-id="4381"></path></svg>