<?xml version="1.0" standalone="no"?><!DOCTYPE svg PUBLIC "-//W3C//DTD SVG 1.1//EN" "http://www.w3.org/Graphics/SVG/1.1/DTD/svg11.dtd"><svg t="1594200616752" class="icon" viewBox="0 0 1024 1024" version="1.1" xmlns="http://www.w3.org/2000/svg" p-id="5993" xmlns:xlink="http://www.w3.org/1999/xlink" width="200" height="200"><defs><style type="text/css"></style></defs><path d="M911 394c-8.5 2.8-17.8-1.7-20.7-10.2-54.9-162.2-207-271.1-378.3-271.1-214.7 0-390.4 170.4-399 383h145.4l173.1-173.1c6.1-6.1 16.9-6.1 23.1 0l150.6 150.6-5.3-28.8c-1.6-8.8 4.2-17.3 13.1-19 9-1.6 17.4 4.2 19 13.1l14.8 80 0.1 0.4c0.9 5.1-0.6 10.5-4.5 14.5-3.2 3.2-7.4 4.8-11.5 4.8-4.2 0-8.3-1.6-11.5-4.8L443 357.2 278.7 521.5c-3.6 3.6-9.1 6.8-15.4 6.8h-167c-9 0-16.3-7.3-16.3-16.3C80 273.8 273.8 80.1 512 80.1c185.3 0 349.8 117.9 409.2 293.3 2.9 8.4-1.7 17.7-10.2 20.6z" fill="#f25635" p-id="5994"></path><path d="M943.9 512c0 238.2-193.8 432-431.9 432-187.7 0-352.8-119.8-410.8-298.2-2.8-8.6 1.9-17.8 10.5-20.5 8.7-2.8 17.8 1.9 20.6 10.5C185.8 800.6 338.4 911.3 512 911.3c214.7 0 390.4-170.4 399-383H772.7c-9 0-16.3-7.3-16.3-16.3s7.3-16.3 16.3-16.3h154.9c1.7 0 3.3 0.3 4.8 0.7 6.7 2.1 11.5 8.3 11.5 15.6z" fill="#f25635" p-id="5995"></path><path d="M570.5 663.3c3.3 3.5 5 7.4 5 11.7 0 5-2.2 9.1-6.5 12.1-1.4 1-3 1.8-4.9 2.4-1.8 0.6-3.3 0.9-4.5 0.9-2.5 0-4.7-0.5-6.7-1.5-3-1.4-6.4-4.3-10-8.5-8-8.8-14.1-16.3-18.4-22.5-2.6-3.6-7.4-11.1-14.3-22.6-4.8-7.9-9.7-16.8-14.7-26.5-4-7.7-8-15.8-11.7-24.3-0.5-0.9-1.6-3.9-3.5-9.1-1.1-3-2.1-4.5-2.8-4.5-1.4 0-3.5 4-6 11.9-2 6.6-5.3 14.6-9.8 23.8-5.5 11.4-11.6 22.5-18.4 33.2-8.1 12.6-16.4 23.4-24.9 32.3-3.2 3.3-6.3 6.7-9.4 10.1-3.1 3.4-6.6 6-10.5 7.7-2 0.9-4.1 1.3-6.3 1.3-2.3 0-4.4-0.4-6.3-1.2-1.9-0.8-3.8-2.1-5.6-4-1.2-1.3-2.1-2.8-2.8-4.3-1.2-2.5-1.7-4.8-1.7-6.9 0-1.9 0.5-3.6 1.5-5.2 1.7-2.9 4.8-6.3 9.1-10.2 5.5-5 9.2-8.6 11.1-10.6 10-10.8 18.3-21.2 24.9-31.2 8.1-12 14.9-25.2 20.4-39.7 4.6-12.4 7.4-20.1 8.5-23 3-8.8 4.5-15.1 4.5-18.9 0-1.6-0.2-2.8-0.7-3.7-0.2-0.4-0.9-0.7-2.2-0.9-1.3-0.1-2.9-0.2-4.8-0.2H416c-3.2-0.3-5.6-0.8-7.2-1.5-4.8-2.3-7.1-6.5-7.1-12.6 0-6.7 2.5-11.1 7.4-13.2 1.6-0.6 4.1-1 7.6-1.3h51.2c3 0 5.3 0.1 6.9 0.2 5 0.7 8.7 2.3 10.9 4.5 2.3 2.3 4.4 6.8 6.4 13.6 2 6.7 4 13.3 6 19.6 7.8 22.6 15 40.3 21.5 53.1 5.1 10.1 11.6 21 19.7 32.5 3.2 4.6 7 9.6 11.5 15.1 4.4 5.5 11 12.8 19.7 22.1z" fill="#f25635" p-id="5996"></path></svg>