<?xml version="1.0" standalone="no"?>
<!DOCTYPE svg PUBLIC "-//W3C//DTD SVG 1.1//EN" "http://www.w3.org/Graphics/SVG/1.1/DTD/svg11.dtd">
<svg width="150px" height="150px" viewBox="0 0 150 150" version="1.1" xmlns="http://www.w3.org/2000/svg" xmlns:xlink="http://www.w3.org/1999/xlink">
    <g id="页面1" stroke="none" stroke-width="1" fill="none" fill-rule="evenodd">
        <g id="铜钱" transform="translate(-0.625000, -0.625000)" fill="#266EFF" fill-rule="nonzero">
            <path d="M75.625,150.625 C56.40625,150.625 37.1875,143.28125 22.65625,128.75 C8.4375,114.53125 0.625,95.625 0.625,75.625 C0.625,55.625 8.4375,36.71875 22.65625,22.65625 C36.71875,8.4375 55.625,0.625 75.625,0.625 C95.625,0.625 114.53125,8.4375 128.59375,22.65625 C157.8125,51.875 157.8125,99.53125 128.59375,128.75 C114.0625,143.28125 94.84375,150.625 75.625,150.625 Z M99.0286364,74.8480682 L76.3394318,52.1588636 C75.6276136,51.4470455 74.5598864,51.4470455 73.8480682,52.1588636 L51.1588636,74.8480682 C50.4470455,75.5598864 50.4470455,76.6276136 51.1588636,77.3394318 L73.8480682,100.028636 C74.5598864,100.740455 75.6276136,100.740455 76.3394318,100.028636 L99.0286364,77.3394318 C99.7404545,76.6276136 99.7404545,75.5598864 99.0286364,74.8480682 Z" id="形状"></path>
        </g>
    </g>
</svg>
