<?xml version="1.0" standalone="no"?><!DOCTYPE svg PUBLIC "-//W3C//DTD SVG 1.1//EN" "http://www.w3.org/Graphics/SVG/1.1/DTD/svg11.dtd"><svg t="1591792031633" class="icon" viewBox="0 0 1077 1024" version="1.1" xmlns="http://www.w3.org/2000/svg" p-id="15550" xmlns:xlink="http://www.w3.org/1999/xlink" width="210.3515625" height="200"><defs><style type="text/css"></style></defs><path d="M721.321558 925.855584c-164.903896 72.743896-362.38961 38.699221-493.115844-84.978701-120.087273-113.836883-169.425455-287.783896-125.938701-447.634286C144.423896 237.780779 270.362597 113.836883 426.356364 73.940779c159.584416-40.96 332.068571 10.372987 444.043636 130.859221 121.55013 130.859221 155.195844 329.00987 80.989091 492.184935-10.24 22.474805-22.341818 44.151688-35.773507 64.764675-14.096623 21.543896 20.48 41.624935 34.443637 20.081039 109.182338-167.297662 106.522597-391.380779-9.841039-554.28987C836.488312 82.584935 658.684675 1.861818 481.014026 23.405714 304.141299 44.94961 151.073247 161.313247 83.116883 325.951169c-68.887273 166.632727-37.236364 361.724675 76.999481 500.164156 120.486234 146.152727 320.764675 209.720519 503.754805 161.845194 26.73039-7.048312 52.52987-16.623377 77.797402-27.661298 23.272727-10.372987 3.058701-44.683636-20.347013-34.443637z" p-id="15551" fill="#0C9EFF"></path><path d="M339.116883 531.948052c98.676364 1.063896 178.468571 80.856104 179.532468 179.532467 0.265974 25.666494 39.63013 25.666494 39.896104 0 1.063896-98.676364 80.856104-178.468571 179.532467-179.532467 25.666494-0.265974 25.666494-39.63013 0-39.896104-98.676364-1.063896-178.468571-80.856104-179.532467-179.532467-0.265974-25.666494-39.63013-25.666494-39.896104 0-1.063896 98.676364-80.856104 178.468571-179.532468 179.532467-25.666494 0.265974-25.666494 40.162078 0 39.896104 120.486234-1.32987 218.098701-98.942338 219.428572-219.428571h-39.896104c1.32987 120.486234 98.942338 218.098701 219.428571 219.428571v-39.896104c-120.486234 1.32987-218.098701 98.942338-219.428571 219.428571h39.896104c-1.32987-120.486234-98.942338-218.098701-219.428572-219.428571-25.666494-0.265974-25.666494 39.63013 0 39.896104z" p-id="15552" fill="#0C9EFF"></path></svg>