<?xml version="1.0" standalone="no"?>
<!DOCTYPE svg PUBLIC "-//W3C//DTD SVG 1.1//EN" "http://www.w3.org/Graphics/SVG/1.1/DTD/svg11.dtd">
<svg width="140px" height="140px" viewBox="0 0 140 140" version="1.1" xmlns="http://www.w3.org/2000/svg" xmlns:xlink="http://www.w3.org/1999/xlink">
    <g id="页面1" stroke="none" stroke-width="1" fill="none" fill-rule="evenodd">
        <g id="fee" transform="translate(0.304688, 0.781250)" fill="#F25635" fill-rule="nonzero">
            <path d="M29.0202708,13.1476587 L29.0039062,13.125 C40.8398437,4.58984375 54.84375,0.078125 69.4921875,0.078125 C78.8476562,0.078125 87.9296875,1.9140625 96.484375,5.52734375 C104.746094,9.0234375 112.148438,14.0234375 118.515625,20.390625 C124.882812,26.7578125 129.882812,34.1796875 133.378906,42.421875 C136.992188,50.9765625 138.828125,60.0585937 138.828125,69.4140625 C138.828125,78.7695312 136.992188,87.8515625 133.378906,96.40625 C129.882812,104.667969 124.882812,112.070312 118.515625,118.4375 C112.148437,124.804687 104.726562,129.804688 96.484375,133.300781 C87.9296875,136.914062 78.8476562,138.75 69.4921875,138.75 C60.1367187,138.75 51.0546875,136.914062 42.5,133.300781 C34.2382812,129.804688 26.8359375,124.804688 20.46875,118.4375 C14.1015625,112.070312 9.1015625,104.648437 5.60546875,96.40625 C2.08528383,88.0719744 0.252035869,79.237179 0.159905289,70.1366456 L0.15625,70.1367187 L0.15625,68.9257812 C0.13671875,67.578125 0.99609375,66.484375 2.0703125,66.4648437 C3.1640625,66.4453125 4.0625,67.5390625 4.0625,68.8867187 L4.0625,69.4140625 C4.06250001,105.488281 33.4179688,134.84375 69.4921875,134.84375 C105.566406,134.84375 134.921875,105.488281 134.921875,69.4140625 C134.921875,33.3398438 105.566406,3.984375 69.4921875,3.984375 C55.6835937,3.984375 42.4609375,8.2421875 31.2890625,16.2890625 L31.2845247,16.2827794 C30.963501,16.5199484 30.5664835,16.6601563 30.1367187,16.6601563 C29.0688244,16.6601563 28.203125,15.7944568 28.203125,14.7265625 C28.203125,14.0745452 28.5258472,13.4979037 29.0202708,13.1476587 Z M68.9453125,39.6484375 C69.0234375,39.6289062 68.9453125,37.5 68.9453125,37.2851562 L68.9453125,34.765625 C68.9453125,34.4140625 68.8671875,34.0820313 68.90625,33.7304688 C68.9257812,33.3984375 69.0820312,33.125 69.2578125,32.8515625 C69.3554687,32.6953125 69.4726562,32.5390625 69.609375,32.4023438 C69.84375,32.1484375 70.1171875,31.9335938 70.4296875,31.796875 C71.0742187,31.5429687 71.71875,31.6796875 72.2460937,32.1289062 C72.8125,32.5976562 73.203125,33.046875 73.2617187,33.8085938 C73.3398437,34.765625 73.2421875,35.7421875 73.2617187,36.71875 L73.2617187,38.3984375 C73.2617187,38.515625 73.2421875,39.7851562 73.2617187,39.8046875 C78.7109375,40.546875 83.7109375,41.8945312 87.1484375,46.3671875 C89.1210937,48.9257812 90.2929687,51.9335938 90.8789062,55.078125 C91.015625,55.7617188 91.2109375,56.484375 90.8984375,57.1484375 C90.546875,57.8710938 89.9414062,58.5546875 89.2578125,58.8671875 C88.3007813,59.3164063 87.0703125,59.0820313 86.1523438,58.4765625 C85.5664063,58.0859375 84.8046875,57.5976563 84.5703125,56.9335938 C84.2773438,56.1132813 84.1210938,55.234375 83.8671875,54.4140625 C83.4179688,52.890625 82.7734375,51.40625 81.7773437,50.1367188 C81.2109375,49.4140625 80.5273437,48.7890625 79.7460937,48.28125 C77.9296875,47.0898438 75.7617188,46.7578125 73.3398438,45.703125 C73.3398438,51.5039063 73.3203125,56.3476563 73.359375,61.484375 C73.3789063,63.4375 72.8710938,65.8203125 73.8085937,67.2070313 C74.6875,68.4960938 77.1289062,68.7890625 78.9257813,69.3945313 C82.9101562,70.7421875 86.6601563,72.421875 89.375,75.8398438 C94.7265625,82.5976563 92.734375,94.0820313 85.1367187,98.1445313 C82.1875,99.7265625 78.6523437,100.253906 75.3710938,101.210938 C74.7851562,101.386719 74.1601562,101.367188 73.3398438,101.445313 C73.3203125,101.445313 73.3398438,102.792969 73.3398438,102.910156 L73.3398438,108.105469 C73.3398438,108.261719 73.3789063,108.417969 73.3203125,108.574219 C73.2421875,108.769531 73.0273438,108.886719 72.8710938,109.023438 C72.7148438,109.160156 72.578125,109.277344 72.421875,109.394531 C72.1679688,109.589844 71.8945313,109.765625 71.5820313,109.863281 C71.015625,110.039062 70.4882813,109.785156 70.0390625,109.472656 C69.8828125,109.355469 69.7265625,109.21875 69.5703125,109.101562 C69.4335938,108.984375 69.296875,108.90625 69.1796875,108.769531 C69.0234375,108.59375 69.0429688,108.457031 69.0429688,108.242187 L69.0429688,107.65625 C69.0429688,107.265625 69.0625,106.875 69.0625,106.484375 C69.0820313,105.703125 69.0820313,104.921875 69.0429688,104.140625 C69.0234375,103.691406 69.0039063,103.261719 68.9648438,102.8125 C68.90625,102.246094 68.1445313,101.367187 67.5976563,101.289062 C58.0859375,99.9414062 52.5585938,94.609375 50.9570313,85.1367187 C50.8398438,84.453125 50.7421875,83.75 50.6445313,83.0664062 C50.4296875,81.5429687 50.7421875,79.8632812 52.1679688,79.0625 C53.2421875,78.4570312 54.53125,78.3789062 55.5078125,79.1992187 C56.3671875,79.921875 57.0703125,80.8007812 57.34375,81.9140625 C57.5976563,82.9101562 57.6757813,83.9453125 57.9101563,84.9609375 C58.3789063,86.953125 58.984375,88.90625 60.1367188,90.6054687 C60.8007813,91.5820312 61.6601563,92.421875 62.6367188,93.1054687 C64.3554688,94.296875 66.5234375,94.8242187 69.0039063,95.859375 L69.0039063,92.9882812 C69.0039063,86.7773437 68.984375,80.5664062 69.0234375,74.3554687 C69.0429688,73.125 68.7109375,72.421875 67.4609375,72.03125 C65.5859375,71.4648437 63.7695313,70.6835937 61.9140625,70.0195312 C54.9804688,67.5195312 51.2890625,62.5976562 51.3476563,55.859375 C51.3867188,48.671875 55.15625,43.4765625 62.1875,41.1523437 C64.296875,40.4882812 66.5429688,40.1757812 68.9453125,39.6484375 L68.9453125,39.6484375 Z M73.4375,73.90625 L73.4375,95.8984375 C76.2109375,94.84375 78.8867188,94.296875 81.0742188,92.9101562 C86.6601563,89.375 86.71875,81.5234375 81.25,77.8515625 C78.9648437,76.328125 76.2890625,75.3320312 73.4375,73.90625 L73.4375,73.90625 Z M68.8476563,66.2890625 L68.8476563,45.9765625 C66.0742188,45.9960937 63.7304688,46.8164062 61.6796875,48.4179687 C57.6757813,51.5234375 57.03125,58.0664062 60.7226563,61.2304687 C62.96875,63.1835937 65.8203125,64.4726562 68.8476563,66.2890625 Z" id="形状"></path>
        </g>
    </g>
</svg>
