<?xml version="1.0" standalone="no"?>
<!DOCTYPE svg PUBLIC "-//W3C//DTD SVG 1.1//EN" "http://www.w3.org/Graphics/SVG/1.1/DTD/svg11.dtd">
<svg width="156px" height="176px" viewBox="0 0 156 176" version="1.1" xmlns="http://www.w3.org/2000/svg" xmlns:xlink="http://www.w3.org/1999/xlink">
    <g id="页面1" stroke="none" stroke-width="1" fill="none" fill-rule="evenodd">
        <g id="file" fill="#266EFF" fill-rule="nonzero">
            <path d="M155.324219,20.7734375 L155.324219,127.257812 L154.757812,127.257812 L155.109375,127.609375 C154.875,159.497396 139.738281,175.441406 109.699219,175.441406 C79.660157,175.441406 79.660157,175.460937 109.699219,175.5 L109.640625,175.441406 L20.96875,175.441406 C9.77734375,175.441406 0.6953125,166.359375 0.6953125,155.167969 L0.6953125,20.7929688 C0.6953125,9.6015625 9.77734375,0.51953125 20.96875,0.51953125 L135.050781,0.51953125 C146.242188,0.51953125 155.324219,9.58203125 155.324219,20.7734375 Z M41.2421875,118.503906 L76.75,118.503906 C79.5234375,118.523438 81.8085938,116.238281 81.8085938,113.445312 L81.8085938,110.90625 C81.8085938,108.09375 79.5234375,105.847656 76.75,105.847656 L41.2421875,105.847656 C38.4296875,105.847656 36.1835938,108.132813 36.1835938,110.90625 L36.1835938,113.445312 C36.1835938,116.257812 38.46875,118.503906 41.2421875,118.503906 Z M109.699219,73.9570312 L41.2421875,73.9570312 C38.4296875,73.9570312 36.1835938,76.2421875 36.1835938,79.015625 L36.1835938,81.5351562 C36.1835938,84.3476562 38.46875,86.59375 41.2421875,86.59375 L109.679688,86.59375 C112.492188,86.59375 114.738281,84.3085937 114.738281,81.5351562 L114.738281,79.015625 C114.757813,76.2421875 112.492188,73.9570312 109.699219,73.9570312 Z M109.699219,38.546875 L41.2421875,38.546875 C38.4296875,38.546875 36.1835938,40.8320313 36.1835938,43.6054688 L36.1835938,46.1445313 C36.1835938,48.9570312 38.46875,51.203125 41.2421875,51.203125 L109.679688,51.203125 C112.492188,51.203125 114.738281,48.9179688 114.738281,46.1445313 L114.738281,43.6054688 C114.757813,40.7929688 112.492188,38.546875 109.699219,38.546875 Z" id="形状"></path>
        </g>
    </g>
</svg>
