<?xml version="1.0" standalone="no"?>
<!DOCTYPE svg PUBLIC "-//W3C//DTD SVG 1.1//EN" "http://www.w3.org/Graphics/SVG/1.1/DTD/svg11.dtd">
<svg width="156px" height="176px" viewBox="0 0 156 176" version="1.1" xmlns="http://www.w3.org/2000/svg" xmlns:xlink="http://www.w3.org/1999/xlink">
    <g id="页面1" stroke="none" stroke-width="1" fill="none" fill-rule="evenodd">
        <g id="文件2" transform="translate(0.656250, 0.500000)" fill="#0C9EFF" fill-rule="nonzero">
            <path d="M40.5859375,118.003906 C37.8125,118.003906 35.5273438,115.757812 35.5273438,112.945312 L35.5273438,110.40625 C35.5273438,107.632813 37.7734375,105.347656 40.5859375,105.347656 L76.09375,105.347656 C78.8671875,105.347656 81.1523438,107.59375 81.1523438,110.40625 L81.1523438,112.945312 C81.1523438,115.738281 78.8671875,118.023438 76.09375,118.003906 L40.5859375,118.003906 Z M109.042969,73.4570312 C111.835938,73.4570312 114.101563,75.7421875 114.082031,78.515625 L114.082031,81.0351562 C114.082031,83.8085937 111.835938,86.09375 109.023438,86.09375 L40.5859375,86.09375 C37.8125,86.09375 35.5273438,83.8476562 35.5273438,81.0351562 L35.5273438,78.515625 C35.5273438,75.7421875 37.7734375,73.4570312 40.5859375,73.4570312 L109.042969,73.4570312 Z M109.042969,38.046875 C111.835938,38.046875 114.101563,40.2929688 114.082031,43.1054688 L114.082031,45.6445313 C114.082031,48.4179688 111.835938,50.703125 109.023438,50.703125 L40.5859375,50.703125 C37.8125,50.703125 35.5273438,48.4570312 35.5273438,45.6445313 L35.5273438,43.1054688 C35.5273438,40.3320313 37.7734375,38.046875 40.5859375,38.046875 L109.042969,38.046875 Z M154.667969,20.2734375 C154.667969,9.08203125 145.585938,0.01953125 134.394531,0.01953125 L20.3125,0.01953125 C9.12109375,0.01953125 0.0390625,9.1015625 0.0390625,20.2929688 L0.0390625,154.667969 C0.0390625,165.859375 9.12109375,174.941406 20.3125,174.941406 L108.984375,174.941406 L109.042969,175 L154.453125,127.109375 L154.101562,126.757812 L154.667969,126.757812 L154.667969,20.2734375 Z M116.621094,114.082031 C105.429688,114.082031 96.3476563,123.164062 96.3476563,134.355469 L96.3476563,162.246094 L22.8515625,162.246094 C17.2460938,162.246094 12.7148437,157.714844 12.7148437,152.109375 L12.7148437,22.8320313 C12.7148437,17.2265625 17.2460937,12.6953125 22.8515625,12.6953125 L131.835938,12.6953125 C137.441406,12.6953125 141.972656,17.2265625 141.972656,22.8320313 C141.992188,22.8320313 141.992188,74.7851562 141.992188,114.082031 L116.621094,114.082031 Z" id="形状"></path>
        </g>
    </g>
</svg>
