<?xml version="1.0" standalone="no"?>
<!DOCTYPE svg PUBLIC "-//W3C//DTD SVG 1.1//EN" "http://www.w3.org/Graphics/SVG/1.1/DTD/svg11.dtd">
<svg width="186px" height="200px" viewBox="0 0 186 200" version="1.1" xmlns="http://www.w3.org/2000/svg" xmlns:xlink="http://www.w3.org/1999/xlink">
    <g id="页面1" stroke="none" stroke-width="1" fill="none" fill-rule="evenodd">
        <g id="笔记本" fill="#266EFF" fill-rule="nonzero">
            <path d="M186,13.2093681 L185.825893,13.2093681 C185.709821,115.155047 185.709821,171.773239 185.825893,183.063943 C185.941964,194.354648 179.831882,200 167.495647,200 L16.9689906,200 C5.65633019,200 0.0372024089,194.833383 0.111607227,184.500149 L0.111607227,13.7005132 C0.0372024089,4.56683773 4.48407334,2.23168706e-13 13.45222,2.23168706e-13 C22.4203667,2.23168706e-13 50.306523,1.49963375e-13 97.1106889,3.55271368e-15 L97.110689,68.1343723 L117.967832,56.9955897 L138.824975,68.1343723 L138.824975,2.2351565e-13 C151.213308,2.24532499e-13 162.143877,2.24416851e-13 171.616683,2.23168706e-13 C181.08949,2.23168706e-13 185.883929,4.40312271 186,13.2093681 Z" id="形状"></path>
        </g>
    </g>
</svg>
