<?xml version="1.0" standalone="no"?>
<!DOCTYPE svg PUBLIC "-//W3C//DTD SVG 1.1//EN" "http://www.w3.org/Graphics/SVG/1.1/DTD/svg11.dtd">
<svg width="201px" height="195px" viewBox="0 0 201 195" version="1.1" xmlns="http://www.w3.org/2000/svg" xmlns:xlink="http://www.w3.org/1999/xlink">
    <g id="页面1" stroke="none" stroke-width="1" fill="none" fill-rule="evenodd">
        <g id="计划" transform="translate(0.960938, 0.710938)" fill="#0C9EFF" fill-rule="nonzero">
            <path d="M200.001562,76.8015625 L200.001562,183.126563 C200.010234,185.86938 198.962821,188.510294 197.076562,190.501562 C195.231824,192.439054 192.676784,193.54052 190.001562,193.551563 L10.0015625,193.551563 C7.32634112,193.54052 4.77130096,192.439054 2.9265625,190.501563 C1.04030427,188.510294 -0.00710920645,185.86938 0.0015625,183.126563 L0.0015625,25.3390625 C0.0015625,19.5890625 4.4765625,14.9140625 10.0015625,14.9140625 L41.5015625,14.9140625 C41.8662547,14.907492 42.2133928,14.7562862 42.4665798,14.493722 C42.7197667,14.2311578 42.8582535,13.8787526 42.8515625,13.5140625 L42.8515625,7.4515625 C42.8515625,3.3390625 46.0515625,0.0015625 49.9890625,0.0015625 C53.9390625,0.0015625 57.1265625,3.3390625 57.1265625,7.4515625 L57.1265625,13.5140625 C57.1125616,14.2687351 57.7095373,14.8936068 58.4640625,14.9140625 L141.489062,14.9140625 C142.243588,14.8936068 142.840563,14.2687351 142.826562,13.5140625 L142.826562,7.4515625 C142.826562,3.3390625 146.026562,0.0015625 149.964063,0.0015625 C153.914062,0.0015625 157.114062,3.3390625 157.114062,7.4515625 L157.114062,13.5140625 C157.100062,14.2687351 157.697037,14.8936068 158.451562,14.9140625 L189.926562,14.9140625 C192.576562,14.9140625 195.126562,16.0140625 197.001562,17.9640625 C198.876562,19.9265625 199.926562,22.5765625 199.926562,25.3390625 L199.926562,76.8140625 L200.001562,76.8140625 L200.001562,76.8015625 Z M185.776563,89.4265625 L185.651562,89.4265625 L185.651562,89.3140625 L15.6015625,89.3140625 C15.2414292,89.3140397 14.8974227,89.4634109 14.6515625,89.7265625 C14.394782,89.9952476 14.2553747,90.3550085 14.2640625,90.7265625 L14.2640625,177.276562 C14.2569675,178.026396 14.8519732,178.643645 15.6015625,178.664063 L184.451562,178.664063 C185.20116,178.63692 185.790692,178.014018 185.776562,177.264063 L185.776562,89.4265625 L185.776563,89.4265625 Z M42.8515625,31.1765625 C42.8483755,30.8085623 42.7053798,30.4555416 42.4515625,30.1890625 C42.2014558,29.9260173 41.8519361,29.7807623 41.4890625,29.7890625 L15.5890625,29.7890625 C15.2287827,29.7955947 14.8860663,29.9458893 14.6372051,30.2064892 C14.388344,30.4670891 14.2539939,30.8163642 14.2640625,31.1765625 L14.2640625,73.0265625 C14.2500616,73.7812351 14.8470373,74.4061068 15.6015625,74.4265625 L184.301563,74.4265625 C185.056088,74.4061068 185.653063,73.7812351 185.639062,73.0265625 L185.639062,31.1765625 C185.640516,30.8100313 185.501902,30.4567888 185.251563,30.1890625 C185.002693,29.9317575 184.659527,29.7872663 184.301562,29.7890625 L158.439062,29.7890625 C158.081098,29.7872663 157.737932,29.9317575 157.489062,30.1890625 C157.238723,30.4567888 157.100109,30.8100313 157.101562,31.1765625 L157.101562,37.2140625 C157.141757,39.1469447 156.412259,41.0165876 155.073631,42.41148 C153.735003,43.8063724 151.896962,44.6121869 149.964062,44.6515625 C145.936993,44.5695277 142.737359,41.2412373 142.814062,37.2140625 L142.814062,31.1765625 C142.815516,30.8100313 142.676902,30.4567888 142.426562,30.1890625 C142.179415,29.9292537 141.835115,29.7842851 141.476562,29.7890625 L58.4640625,29.7890625 C57.7144732,29.8094799 57.1194675,30.4267288 57.1265625,31.1765625 L57.1265625,37.2140625 C57.1318617,39.1711209 56.3844594,41.0552909 55.0390625,42.4765625 C53.7241345,43.8603227 51.897941,44.6423312 49.9890625,44.6390625 C45.9599558,44.5434837 42.7677574,41.2059313 42.8515625,37.1765625 L42.8515625,31.1765625 L42.8515625,31.1765625 Z M87.7331813,136.065309 C87.9506894,136.353665 88.2764885,136.540729 88.6351738,136.583205 C88.9938592,136.625681 89.3543388,136.519887 89.6331813,136.290309 L121.133181,110.302809 C121.408025,110.072175 121.76664,109.966688 122.122587,110.011775 C122.478534,110.056861 122.799522,110.248431 123.008181,110.540309 L130.208181,120.027809 C130.668683,120.634903 130.575459,121.495856 129.995681,121.990309 L86.2331813,158.090309 L86.2081813,158.065309 L69.2831813,135.777809 C68.8336411,135.169798 68.9319872,134.317465 69.5081813,133.827809 L78.6081813,126.302809 C78.8849533,126.073848 79.2434696,125.968326 79.6001457,126.010844 C79.9568217,126.053362 80.2804867,126.240203 80.4956813,126.527809 L87.7206813,136.077809 L87.7331813,136.065309 L87.7331813,136.065309 Z" id="形状"></path>
        </g>
    </g>
</svg>