<?xml version="1.0" standalone="no"?><!DOCTYPE svg PUBLIC "-//W3C//DTD SVG 1.1//EN" "http://www.w3.org/Graphics/SVG/1.1/DTD/svg11.dtd"><svg t="1594200578226" class="icon" viewBox="0 0 1024 1024" version="1.1" xmlns="http://www.w3.org/2000/svg" p-id="5758" xmlns:xlink="http://www.w3.org/1999/xlink" width="200" height="200"><defs><style type="text/css"></style></defs><path d="M925.9 389.6c-8.9 3-18.5-1.8-21.5-10.6C847.5 210.7 689.8 97.7 512 97.7c-222.8 0-405.1 176.8-414 397.4h156c9.3 0 16.9 7.6 16.9 16.9 0 9.3-7.6 16.9-16.9 16.9H80.8c-9.3 0-16.9-7.6-16.9-16.9 0-247.1 201-448.1 448.1-448.1 192.3 0 362.9 122.3 424.5 304.3 3 8.8-1.7 18.4-10.6 21.4z" fill="#f25635" p-id="5759"></path><path d="M960.1 512c0 247.1-201 448.1-448.1 448.1-194.8 0-366.1-124.3-426.2-309.4-2.9-8.9 2-18.4 10.9-21.3 9-2.9 18.4 2 21.3 10.9 55.6 171.1 214 286 394.1 286 222.8 0 405.1-176.8 414-397.4H788.2L608.7 708.5c-3.3 3.3-7.7 5-12 5s-8.7-1.7-12-5L428.1 551.9l5.9 31.7c1.7 9.2-4.4 18-13.6 19.7-1 0.2-2.1 0.3-3.1 0.3-8 0-15.1-5.7-16.6-13.9l-15.4-83.4c-1.4-6.5 0.6-12.4 4.7-16.5 6.6-6.6 17.3-6.6 23.9 0l182.8 182.8 170.5-170.5c3.8-3.8 8.8-7 15.3-7h160.7c1.7 0 3.4 0.3 5 0.8 6.9 2.1 11.9 8.5 11.9 16.1z" fill="#f25635" p-id="5760"></path><path d="M693.1 500.9c0 5.1-1.3 9.4-4 13-2 2.5-4.3 4.2-7.1 5-2.8 0.8-6.3 1.3-10.4 1.3H525.3c-7.2 0-12.8-2.5-16.9-7.4-2.4-3-3.6-6.9-3.6-11.7v-59.8c0-3.9 1.3-7 4.1-9.2 2.7-2.2 6.3-3.4 10.8-3.4 3.6 0 6.7 1.2 9.2 3.6 2.5 2.4 3.8 5.4 3.8 9v44.3c0 3 0.3 4.9 0.9 5.6 0.6 0.9 1.5 1.5 2.7 1.8 0.6 0.1 2 0.2 4 0.2h37.6c1.2 0 2.4 0 3.7-0.1 1.3-0.1 2.3-0.6 2.9-1.6s1-2.7 1-5.1v-60.3c0-2.9-0.5-4.5-1.6-5-1-0.5-2.4-0.8-4.1-0.8h-49.7c-6.5 0-11.7-2.5-15.8-7.6-1.7-2.1-2.8-4.5-3.5-7.2-0.7-2.7-1-5.3-1-7.6v-49.5c0-3.4 1.4-6.3 4.4-8.7 2.9-2.3 6.3-3.5 10-3.5s7 1.2 9.8 3.5 4.2 5.2 4.2 8.7v36c0 1.2 0 2.4 0.1 3.7 0 1.3 0.4 2.5 1.1 3.6 0.7 1.1 2.1 1.7 4.2 1.7h36c2.7 0 4.4-0.4 5-1.1 0.6-0.6 0.9-1.7 0.9-3.4v-52.6c0-3.4 1.4-6.2 4.3-8.2 2.9-2 6.2-3 10.1-3 3.8 0 7 1 9.8 3s4.2 4.8 4.2 8.2v50.9c0 2.4 0.4 4 1.3 4.8 0.8 0.8 1.8 1.3 2.9 1.3 1.1 0.1 2.3 0.1 3.5 0.1h31.1c2.7 0 4.6-0.5 5.6-1.6 1.1-1 1.6-2.7 1.6-5v-37.6c0-3.4 1.4-6.4 4.2-8.8 2.9-2.4 6.1-3.6 9.7-3.6 4.5 0 8.1 1.1 10.8 3.4 2.7 2.2 4.1 5.2 4.1 9v51.3c0 3.3-0.1 5.6-0.3 7-0.2 1.3-1 3.1-2.4 5.2-3.3 5.1-8.2 7.6-14.6 7.6h-51.9c-2.1 0-3.5 0.5-4.2 1.6-0.7 1-1 2.3-1 3.8v60.5c0 2.4 0.3 4.2 1 5.3s2.1 1.7 4.4 1.7h38.7c2.4 0 4.2-0.7 5.4-2 0.4-0.4 0.8-1.1 0.9-1.8 0.1-0.6 0.2-1.4 0.2-2.5v-45.4c0-3.3 1.5-6 4.4-8.2 2.9-2.2 6.3-3.3 10-3.3 3.6 0 6.8 1.1 9.7 3.2 2.8 2.1 4.2 4.9 4.2 8.3v59.4z" fill="#f25635" p-id="5761"></path></svg>