<?xml version="1.0" standalone="no"?>
<!DOCTYPE svg PUBLIC "-//W3C//DTD SVG 1.1//EN" "http://www.w3.org/Graphics/SVG/1.1/DTD/svg11.dtd">
<svg width="200px" height="200px" viewBox="0 0 200 200" version="1.1" xmlns="http://www.w3.org/2000/svg" xmlns:xlink="http://www.w3.org/1999/xlink">
    <g id="页面1" stroke="none" stroke-width="1" fill="none" fill-rule="evenodd">
        <g id="时间" fill="#266EFF" fill-rule="nonzero">
            <path d="M100,0 C155.228947,0 200,44.7710525 200,100 C200,155.228947 155.228947,200 100,200 C44.7710525,200 0,155.228947 0,100 C0,44.7710525 44.7710525,0 100,0 Z M98.6842105,48.6842105 C94.3240677,48.6842105 90.7894736,52.2188047 90.7894736,56.5789475 L90.7894736,94.7368422 C90.7894736,95.8578947 91.0236842,96.925 91.4447369,97.8907895 C91.4153931,100.015604 92.2474467,102.0618 93.7513158,103.563158 L140.456579,150.302632 L140.460526,150.305263 C143.536621,153.379855 148.522727,153.378677 151.597368,150.302632 C154.673893,147.223652 154.673893,142.234243 151.597368,139.155263 L106.578947,94.1039475 L106.578947,56.5789475 C106.578947,52.2188047 103.044353,48.6842105 98.6842105,48.6842105 Z M54.45,168.094737 C59.0986842,171.310526 63.8184211,173.813158 69.0855264,175.934211 C70.8350835,176.663852 72.8418443,176.396301 74.3391295,175.233777 C75.8364146,174.071252 76.5928811,172.193373 76.3195222,170.317579 C76.0461633,168.441786 74.7852153,166.857904 73.0184211,166.171053 C68.1526316,164.210526 63.8907896,161.910526 59.6368422,158.873684 L59.4236842,158.721053 L59.1960525,158.592105 L58.5907895,158.236842 C55.3486844,156.290789 51.8171053,153.488158 48.4039475,150.172368 C47.0592857,148.840856 45.1033178,148.333716 43.2810869,148.844124 C41.4588561,149.354531 40.0509079,150.803905 39.5935408,152.640166 C39.1361737,154.476428 39.6998026,156.416872 41.0697369,157.722368 L41.8157895,158.439474 C45.5605262,161.989474 49.4565789,165.035526 53.2131578,167.285526 L53.7328947,167.590789 L54.45,168.094737 Z M27.4907895,140.992105 L29.6736842,144.773684 C31.1474124,147.279313 34.3733186,148.115833 36.8789473,146.642105 C39.384576,145.168377 40.2210966,141.942471 38.7473684,139.436842 L38.5671053,139.128947 L36.8605264,136.161842 C36.2710527,135.147368 35.8,134.368421 35.3263158,133.634211 L35.2157895,133.463158 L35.1171053,133.081579 C34.911842,132.327632 34.6381578,131.575 34.2407895,130.601316 L33.9197369,129.825 L33.6907895,129.298684 C32.4568926,126.721871 29.3925794,125.600005 26.7865822,126.771007 C24.180585,127.942009 22.9846879,130.978196 24.0921053,133.611842 L24.5368422,134.682895 C24.8671053,135.502631 24.9947369,135.919737 25.0684211,136.371053 L25.2578947,137.536842 L26.0631578,138.709211 C26.5639449,139.454311 27.0400797,140.215688 27.4907895,140.992105 Z" id="形状"></path>
        </g>
    </g>
</svg>
