<?xml version="1.0" standalone="no"?><!DOCTYPE svg PUBLIC "-//W3C//DTD SVG 1.1//EN" "http://www.w3.org/Graphics/SVG/1.1/DTD/svg11.dtd"><svg t="1594200626748" class="icon" viewBox="0 0 1024 1024" version="1.1" xmlns="http://www.w3.org/2000/svg" p-id="6158" xmlns:xlink="http://www.w3.org/1999/xlink" width="200" height="200"><defs><style type="text/css"></style></defs><path d="M213.3 490.59h-46.926c-32.985 0-59.724-26.74-59.724-59.724V209.034c0-32.985 26.74-59.724 59.724-59.724H213.3v-42.66h63.99v42.66h46.926c32.985 0 59.724 26.74 59.724 59.724v221.832c0 32.985-26.74 59.724-59.724 59.724H277.29v42.66H213.3v-42.66z m543.915 277.29v-42.66H661.23v-63.99h82.732l-84.026-84.026 45.248-45.248 84.026 84.026 84.026-84.026 45.248 45.248-84.026 84.026h82.732v63.99h-95.985v42.66h95.985v63.99h-95.985v85.32h-63.99v-85.32H661.23v-63.99h95.985zM170.64 213.3v213.3h149.31V213.3H170.64z m52.031 513.214l-52.031-52.031v146.722c0 17.67 14.325 31.995 31.995 31.995H597.24v63.99H202.635c-53.011 0-95.985-42.974-95.985-95.985V519.997l161.269 161.27-45.248 45.247zM853.2 349.357V202.635c0-17.67-14.325-31.995-31.995-31.995H447.93v-63.99h373.275c53.011 0 95.985 42.974 95.985 95.985v301.208l-161.269-161.27 45.248-45.247 52.031 52.031z" p-id="6159" fill="#f25635"></path></svg>