<?xml version="1.0" standalone="no"?>
<!DOCTYPE svg PUBLIC "-//W3C//DTD SVG 1.1//EN" "http://www.w3.org/Graphics/SVG/1.1/DTD/svg11.dtd">
<svg width="42px" height="43px" viewBox="0 0 42 43" version="1.1" xmlns="http://www.w3.org/2000/svg" xmlns:xlink="http://www.w3.org/1999/xlink">
    <g id="日历" stroke="none" stroke-width="1" fill="none" fill-rule="evenodd">
        <g id="calendar">
            <path d="M36.0328125,42.046875 L5.9203125,42.046875 C2.6578125,42.046875 0,39.384375 0,36.1078125 L0,9.3421875 C0,6.065625 2.6578125,3.403125 5.9203125,3.403125 L8.4,3.403125 L8.4,5.278125 L5.9203125,5.278125 C3.6890625,5.278125 1.875,7.1015625 1.875,9.3421875 L1.875,36.1125 C1.875,38.353125 3.6890625,40.1765625 5.9203125,40.1765625 L36.0328125,40.1765625 C38.2640625,40.1765625 40.078125,38.353125 40.078125,36.1125 L40.078125,9.3421875 C40.078125,7.1015625 38.2640625,5.278125 36.0328125,5.278125 L33.440625,5.278125 L33.440625,3.403125 L36.0328125,3.403125 C39.2953125,3.403125 41.953125,6.065625 41.953125,9.3421875 L41.953125,36.1125 C41.953125,39.384375 39.2953125,42.046875 36.0328125,42.046875 Z" id="路径" fill="#333333" fill-rule="nonzero"></path>
            <path d="M11.8453125,7.8234375 L11.64375,7.8234375 C10.940625,7.8234375 10.36875,7.246875 10.36875,6.5484375 L10.36875,1.303125 C10.36875,0.6 10.9453125,0.028125 11.64375,0.028125 L11.8453125,0.028125 C12.5484375,0.028125 13.1203125,0.6046875 13.1203125,1.303125 L13.1203125,6.5484375 C13.1203125,7.2515625 12.54375,7.8234375 11.8453125,7.8234375 L11.8453125,7.8234375 Z M20.9578125,7.8234375 L20.75625,7.8234375 C20.053125,7.8234375 19.48125,7.246875 19.48125,6.5484375 L19.48125,1.303125 C19.48125,0.6 20.0578125,0.028125 20.75625,0.028125 L20.9578125,0.028125 C21.6609375,0.028125 22.2328125,0.6046875 22.2328125,1.303125 L22.2328125,6.5484375 C22.2328125,7.2515625 21.6609375,7.8234375 20.9578125,7.8234375 L20.9578125,7.8234375 Z M30.0703125,7.8234375 L29.86875,7.8234375 C29.165625,7.8234375 28.59375,7.246875 28.59375,6.5484375 L28.59375,1.303125 C28.59375,0.6 29.1703125,0.028125 29.86875,0.028125 L30.0703125,0.028125 C30.7734375,0.028125 31.3453125,0.6046875 31.3453125,1.303125 L31.3453125,6.5484375 C31.35,7.2515625 30.7734375,7.8234375 30.0703125,7.8234375 L30.0703125,7.8234375 Z M1.2421875,12.525 L40.6875,12.525 L40.6875,14.6625 L1.2421875,14.6625 L1.2421875,12.525 Z" id="形状" fill="#333333" fill-rule="nonzero"></path>
            <text id="30" font-family="DINAlternate-Bold, DIN Alternate" font-size="22" font-weight="bold" fill="#00D8A0">
                <tspan x="11" y="35">14</tspan>
            </text>
        </g>
    </g>
</svg>
